<svg width="40" height="40" viewBox="0 0 40 40" fill="none" xmlns="http://www.w3.org/2000/svg">
<path d="M20 0C8.97231 0 0 8.97231 0 20C0 31.0277 8.97231 40 20 40C31.0277 40 40 31.0277 40 20C40 8.97231 31.0277 0 20 0ZM20 3.07692C29.3308 3.07692 36.9231 10.6692 36.9231 20C36.9231 29.3308 29.3308 36.9231 20 36.9231C12.1408 36.9231 5.53625 31.5296 3.64183 24.2548L9.28185 26.6707C9.54146 28.9737 11.4737 30.7692 13.8462 30.7692C16.3954 30.7692 18.4615 28.7031 18.4615 26.1538C18.4615 26.1046 18.4481 26.0573 18.4465 26.0096L24.8738 21.5144C28.1507 21.376 30.7692 18.6954 30.7692 15.3846C30.7692 11.9862 28.0138 9.23077 24.6154 9.23077C21.3046 9.23077 18.6255 11.8493 18.4886 15.1262L13.9904 21.5535C13.9412 21.5519 13.8954 21.5385 13.8462 21.5385C12.8257 21.5385 11.8909 21.8793 11.1268 22.4399L3.128 19.0114C3.64441 10.1415 11.0029 3.07692 20 3.07692ZM24.6154 10.7692C27.1646 10.7692 29.2308 12.8354 29.2308 15.3846C29.2308 17.9338 27.1646 20 24.6154 20C22.0662 20 20 17.9338 20 15.3846C20 12.8354 22.0662 10.7692 24.6154 10.7692ZM24.6154 12.3077C23.7993 12.3077 23.0167 12.6319 22.4397 13.2089C21.8626 13.7859 21.5385 14.5686 21.5385 15.3846C21.5385 16.2007 21.8626 16.9833 22.4397 17.5603C23.0167 18.1374 23.7993 18.4615 24.6154 18.4615C25.4314 18.4615 26.2141 18.1374 26.7911 17.5603C27.3681 16.9833 27.6923 16.2007 27.6923 15.3846C27.6923 14.5686 27.3681 13.7859 26.7911 13.2089C26.2141 12.6319 25.4314 12.3077 24.6154 12.3077ZM13.8462 23.0769C15.5462 23.0769 16.9231 24.4538 16.9231 26.1538C16.9231 27.8538 15.5462 29.2308 13.8462 29.2308C12.6019 29.2308 11.5366 28.49 11.0517 27.4279L12.2566 27.9447C12.552 28.0724 12.861 28.134 13.1641 28.134C14.0594 28.134 14.9131 27.6092 15.2885 26.7338C15.79 25.563 15.2468 24.2065 14.0745 23.7049L12.9537 23.2242C13.238 23.1375 13.5334 23.0769 13.8462 23.0769Z" fill="#333333"/>
</svg>
